<svg version="1.1" viewBox="0.0 0.0 512.0 512.0" fill="none" stroke="none" stroke-linecap="square" stroke-miterlimit="10" xmlns:xlink="http://www.w3.org/1999/xlink" xmlns="http://www.w3.org/2000/svg"><clipPath id="p.0"><path d="m0 0l512.0 0l0 512.0l-512.0 0l0 -512.0z" clip-rule="nonzero"/></clipPath><g clip-path="url(#p.0)"><path fill="#000000" fill-opacity="0.0" d="m0 0l512.0 0l0 512.0l-512.0 0z" fill-rule="evenodd"/><path fill="#000000" fill-opacity="0.0" d="m0 0l512.0 0l0 512.0l-512.0 0z" fill-rule="evenodd"/><path fill="#000000" d="m319.90607 58.84372q37.171875 0 66.46875 17.296875q29.296875 17.28125 45.625 47.34375q16.34375 30.046875 16.34375 67.015625l0 6.921875q0 36.9375 -16.328125 67.28125q-16.328125 30.328125 -45.640625 47.609375q-29.296875 17.28125 -66.46875 17.28125l-76.890625 0l0 118.40625l-140.07812 0l0 -389.15625l216.96875 0zm-76.890625 162.67188l37.421875 0q13.984375 0 20.109375 -6.296875q6.125 -6.3125 6.125 -18.328125l0 -4.265625q0 -12.453125 -6.09375 -18.53125q-6.078125 -6.09375 -20.140625 -6.09375l-37.421875 0l0 53.515625z" fill-rule="nonzero"/></g></svg>